<?xml version="1.0" standalone="no"?><!DOCTYPE svg PUBLIC "-//W3C//DTD SVG 1.1//EN" "http://www.w3.org/Graphics/SVG/1.1/DTD/svg11.dtd"><svg t="1617788821009" class="icon" viewBox="0 0 1032 1024" version="1.1" xmlns="http://www.w3.org/2000/svg" p-id="1334" xmlns:xlink="http://www.w3.org/1999/xlink" width="48.375" height="48"><defs><style type="text/css"></style></defs><path d="M255.31845125 299.16981125h-178.74875906c-9.05660344 0-17.15988094 3.81330656-22.40317782 9.53326688-10.00993031 10.00993031-14.29990031 27.16981125-2.38331718 41.4697125 6.67328719 8.1032775 17.15988094 12.86991094 28.12313812 12.86991h219.26514469c35.27308875 0 63.87288938-28.59980156 63.87288938-63.87288938v-222.60178781c0-9.05660344-3.81330656-17.15988094-9.53326688-22.40317782-10.00993031-10.00993031-27.16981125-14.29990031-41.4697125-2.38331625-8.1032775 6.67328719-12.86991094 17.15988094-12.86991 28.12313813v175.412115l-214.02184781-214.02184688c-11.91658406-12.3932475-31.45978125-12.3932475-43.85302875 0-11.91658406 11.91658406-11.91658406 31.93644469 0 43.85302875l214.02184781 214.02184688zM299.17148 654.76067563h-222.60178781c-9.05660344 0-17.15988094 3.81330656-22.40317782 9.53326687-10.00993031 10.00993031-14.29990031 27.16981125-2.38331718 41.46971156 6.67328719 8.1032775 17.15988094 12.86991094 28.12313812 12.86991094h175.41211594l-214.02184781 214.02184688c-12.3932475 11.91658406-12.3932475 31.45978125 0 43.85302875 11.91658406 11.91658406 31.93644469 11.91658406 43.85302875 0l214.02184781-214.02184688v178.74875906c0 9.05660344 3.81330656 17.15988094 9.53326688 22.40317782 10.00993031 10.00993031 27.16981125 14.29990031 41.46971156 2.38331625 8.1032775-6.67328719 12.86991094-17.15988094 12.86991093-28.12313813v-219.26514375c0.47666344-35.27308875-28.12313813-63.87288938-63.87288937-63.87288938zM984.61338594 938.85203562l-214.02184688-214.02184687h178.74875907c9.05660344 0 17.15988094-3.81330656 22.40317781-9.53326688 10.00993031-10.00993031 14.29990031-27.16981125 2.38331625-41.4697125-6.67328719-8.1032775-17.15988094-12.86991094-28.12313813-12.86991h-219.26514375c-35.27308875 0-63.87288938 28.59980156-63.87288937 63.87288938V947.43197656c0 9.05660344 3.81330656 17.15988094 9.53326687 22.40317782 10.00993031 10.00993031 27.16981125 14.29990031 41.46971156 2.38331625 8.1032775-6.67328719 12.86991094-17.15988094 12.86991094-28.12313813v-175.412115l214.02184688 214.02184688c11.91658406 12.3932475 31.45978125 12.3932475 43.85302875 0 11.91658406-11.91658406 11.91658406-31.93644469 0-43.85302875zM720.06522312 363.04270063h222.60178782c9.05660344 0 17.15988094-3.81330656 22.40317781-9.53326688 10.00993031-10.00993031 14.29990031-27.16981125 2.38331625-41.46971156-6.67328719-8.1032775-17.15988094-12.86991094-28.12313719-12.86991094h-175.41211594l214.02184782-214.02184688c12.3932475-11.91658406 12.3932475-31.45978125 0-43.85302875-11.91658406-11.91658406-31.93644469-11.91658406-43.85302875 0l-214.02184782 214.02184688v-178.74875906c0-9.05660344-3.81330656-17.15988094-9.53326687-22.40317782-10.00993031-10.00993031-27.16981125-14.29990031-41.46971156-2.38331625-8.1032775 6.67328719-12.86991094 17.15988094-12.86991094 28.12313813v219.26514375c0.47666344 35.27308875 29.076465 63.87288938 63.87288937 63.87288938z" p-id="1335"></path></svg>