<?xml version="1.0" standalone="no"?><!DOCTYPE svg PUBLIC "-//W3C//DTD SVG 1.1//EN" "http://www.w3.org/Graphics/SVG/1.1/DTD/svg11.dtd"><svg t="1618561272107" class="icon" viewBox="0 0 1024 1024" version="1.1" xmlns="http://www.w3.org/2000/svg" p-id="4844" xmlns:xlink="http://www.w3.org/1999/xlink" width="48" height="48"><defs><style type="text/css"></style></defs><path d="M677.470625 294.57A351.725 351.725 0 0 0 767.8 441.655c38.37-38.37 63.95-89.53 83.135-147.085H677.470625zM256.2 614.32h166.27l-83.135-223.825-83.135 223.825z" p-id="4845"></path><path d="M895.7 0.4H128.3A127.9 127.9 0 0 0 0.4 128.3v767.4a127.9 127.9 0 0 0 127.9 127.9h767.4a127.9 127.9 0 0 0 127.100625-127.9V128.3c0-70.345-51.16-127.9-127.9-127.9zM581.545625 825.355c-12.79 12.79-25.58 12.79-38.37 12.79-6.395 0-19.185 0-25.58-6.395-6.395-6.395-12.79 0-12.79-6.395s-6.395-12.79-12.79-25.58-6.395-19.185-12.79-31.975l-25.58-70.345h-223.825L205.04 767.8c-12.79 25.58-19.185 44.765-25.58 57.555-6.395 12.79-19.185 12.79-38.37 12.79-12.79 0-25.58-6.395-38.37-12.79-12.79-12.79-19.185-19.185-19.185-31.975 0-6.395 0-12.79 6.395-25.58s6.395-19.185 12.79-31.975l140.69-358.12c6.395-12.79 6.395-25.58 12.79-38.37 6.395-12.79 12.79-25.58 19.185-31.975 6.395-6.395 12.79-19.185 25.58-25.58 12.79-6.395 25.58-6.395 38.37-6.395 12.79 0 25.58 0 38.37 6.395 12.79 6.395 19.185 12.79 25.58 25.58a311.75625 311.75625 0 0 1 38.37 76.74l140.69 351.725c12.79 25.58 19.185 44.765 19.185 57.555-6.395 6.395-12.79 19.185-19.185 31.975z m351.725-249.405a516.39625 516.39625 0 0 1-167.069375-95.925 379.703125 379.703125 0 0 1-171.865625 95.925L575.95 543.975c69.545625-19.185 127.9-44.765 171.865625-89.53a336.536875 336.536875 0 0 1-95.925-166.27h-63.95v-25.58h172.665c-12.79-19.185-25.58-44.765-38.37-63.95l19.185-6.395c12.79 19.185 31.975 44.765 44.765 70.345h159.875v31.975h-63.95c-19.185 63.95-51.16 121.505-89.53 159.875 44.765 38.37 95.925 70.345 166.27 89.53l-25.58 31.975z" p-id="4846"></path></svg>