<?xml version="1.0" standalone="no"?><!DOCTYPE svg PUBLIC "-//W3C//DTD SVG 1.1//EN" "http://www.w3.org/Graphics/SVG/1.1/DTD/svg11.dtd"><svg t="1617674984540" class="icon" viewBox="0 0 1024 1024" version="1.1" xmlns="http://www.w3.org/2000/svg" p-id="746" xmlns:xlink="http://www.w3.org/1999/xlink" width="48" height="48"><defs><style type="text/css"></style></defs><path d="M109.60000001 349.1L629.3 349.1c25.20000001 0 45.6 22 45.6 48.9s-20.40000001 48.9-45.6 48.9l-519.69999999 0c-25.20000001 0-45.6-22-45.60000001-48.9s20.40000001-48.9 45.60000001-48.9z m-1e-8 228.1L629.3 577.2c25.20000001 0 45.6 22 45.6 48.9s-20.40000001 48.9-45.6 48.9l-519.7 0c-25.20000001 0-45.6-22-45.6-48.9s20.40000001-48.9 45.6-48.9z m3.3 219.9L908.7 797.1c26.89999999 0 50.5 20.40000001 51.3 47.2 0.8 27.69999999-21.2 50.5-48.9 50.5l-795.8 0c-26.89999999 0-50.5-20.40000001-51.3-47.2-0.8-27.69999999 21.2-50.5 48.9-50.5zM960 349.9L960 674.1 732.7 512 960 349.9c0-0.79999999 0-0.79999999 0 0z m-48.9-123l-795.8 0c-26.89999999 0-50.5-20.40000001-51.3-47.2-0.8-27.69999999 21.2-50.5 48.9-50.5L908.7 129.2c26.89999999 0 50.5 20.40000001 51.3 47.2 0.8 27.69999999-21.2 50.5-48.9 50.5z" p-id="747"></path></svg>