<?xml version="1.0" standalone="no"?><!DOCTYPE svg PUBLIC "-//W3C//DTD SVG 1.1//EN" "http://www.w3.org/Graphics/SVG/1.1/DTD/svg11.dtd"><svg class="icon" width="200px" height="200.00px" viewBox="0 0 1024 1024" version="1.1" xmlns="http://www.w3.org/2000/svg"><path fill="#333333" d="M793.6 713.6c0 144-118.4 262.4-262.4 262.4s-262.4-118.4-262.4-262.4c0-131.2 96-240 220.8-259.2V64c0-16 12.8-28.8 28.8-28.8s28.8 12.8 28.8 28.8v70.4h137.6c16 0 28.8 12.8 28.8 28.8s-12.8 28.8-28.8 28.8h-137.6v83.2h137.6c16 0 28.8 12.8 28.8 28.8s-12.8 28.8-28.8 28.8h-137.6v124.8c137.6 3.2 246.4 115.2 246.4 256z m-470.4 0c0 115.2 92.8 208 208 208s208-92.8 208-208-92.8-208-208-208-208 96-208 208z"  /></svg>